<svg width="297mm" height="210mm" version="1.1" viewBox="0 0 297 210" xmlns="http://www.w3.org/2000/svg">
 <title>SVG Image created as W48_W49_Nummernschalter_Adapter-Edge_Cuts.svg date 2024/04/16 18:30:07</title>
 <desc>Image generated by PCBNEW</desc>
 <g fill="none" stroke="#000" stroke-linecap="round" stroke-linejoin="round" stroke-width=".3">
  <text x="178.0022" y="180.7572" font-size="2" opacity="0" lengthAdjust="spacingAndGlyphs" textLength="0.9000"/>
 </g>
 <g fill="none" font-size="2" stroke="#000" stroke-linecap="round" stroke-linejoin="round" stroke-width=".15">
  <text x="178.0022" y="177.7572" opacity="0" lengthAdjust="spacingAndGlyphs" textLength="0.4500"/>
  <text x="178.0022" y="174.7572" opacity="0" lengthAdjust="spacingAndGlyphs" textLength="0.4500"/>
  <text x="178.0022" y="171.7572" opacity="0" lengthAdjust="spacingAndGlyphs" textLength="0.4500"/>
  <text x="178.0022" y="168.7572" opacity="0" lengthAdjust="spacingAndGlyphs" textLength="0.4500"/>
 </g>
 <g fill="none" stroke="#fff" stroke-linecap="round" stroke-linejoin="round" stroke-width="3">
  <path d="m86.3 79.9a8.27 8.27 0 0 0 6.97 12.1"/>
  <path d="m140 47v-5"/>
  <path d="m120 47 0.0585-4.96"/>
  <path d="m113 42a4.71 4.71 0 0 0-3.86 2.1"/>
  <path d="m151 44.2 22.3 35.5"/>
  <path d="m140 42 6.73 0.0408"/>
  <path d="m140 47h-20"/>
  <path d="m166 92c-78.7 0.0136-48.4 0.0272-72.7 0.0408"/>
  <path d="m151 44.2a5 5 0 0 0-4.11-2.15"/>
  <path d="m109 44.4-22.4 35"/>
  <path d="m120 42-6.56-0.0408"/>
  <path d="m166 92a8.3 8.3 0 0 0 7.4-12.1"/>
 </g>
</svg>
