<?xml version="1.0" standalone="no"?>
 <!DOCTYPE svg PUBLIC "-//W3C//DTD SVG 1.1//EN" 
 "http://www.w3.org/Graphics/SVG/1.1/DTD/svg11.dtd"> 
<svg
  xmlns:svg="http://www.w3.org/2000/svg"
  xmlns="http://www.w3.org/2000/svg"
  xmlns:xlink="http://www.w3.org/1999/xlink"
  version="1.1"
  width="297.0022mm" height="210.0072mm" viewBox="0.0000 0.0000 297.0022 210.0072">
<title>SVG Image created as W48_W49_Nummernschalter_Adapter-F_Fab.svg date 2025/03/28 15:49:43 </title>
  <desc>Image generated by PCBNEW </desc>
<g style="fill:#000000; fill-opacity:1.0000;stroke:#000000; stroke-opacity:1.0000;
stroke-linecap:round; stroke-linejoin:round;"
 transform="translate(0 0) scale(1 1)">
</g>
<g style="fill:none; 
stroke:#AFAFAF; stroke-width:0.1500; stroke-opacity:1; 
stroke-linecap:round; stroke-linejoin:round;">
<text x="147.0000" y="54.5000"
textLength="2.2500" font-size="1.3333" lengthAdjust="spacingAndGlyphs"
text-anchor="middle" opacity="0" stroke-opacity="0">H4</text>
<g class="stroked-text"><desc>H4</desc>
<path d="M146.2381 54.4548
L146.2381 53.4548
" />
<path d="M146.2381 53.9310
L146.8095 53.9310
" />
<path d="M146.8095 54.4548
L146.8095 53.4548
" />
<path d="M147.7143 53.7882
L147.7143 54.4548
" />
<path d="M147.4762 53.4072
L147.2381 54.1215
" />
<path d="M147.2381 54.1215
L147.8571 54.1215
" />
</g><text x="113.0000" y="54.5000"
textLength="2.2500" font-size="1.3333" lengthAdjust="spacingAndGlyphs"
text-anchor="middle" opacity="0" stroke-opacity="0">H3</text>
<g class="stroked-text"><desc>H3</desc>
<path d="M112.2381 54.4548
L112.2381 53.4548
" />
<path d="M112.2381 53.9310
L112.8095 53.9310
" />
<path d="M112.8095 54.4548
L112.8095 53.4548
" />
<path d="M113.1905 53.4548
L113.8095 53.4548
" />
<path d="M113.8095 53.4548
L113.4762 53.8358
" />
<path d="M113.4762 53.8358
L113.6190 53.8358
" />
<path d="M113.6190 53.8358
L113.7143 53.8834
" />
<path d="M113.7143 53.8834
L113.7619 53.9310
" />
<path d="M113.7619 53.9310
L113.8095 54.0262
" />
<path d="M113.8095 54.0262
L113.8095 54.2643
" />
<path d="M113.8095 54.2643
L113.7619 54.3596
" />
<path d="M113.7619 54.3596
L113.7143 54.4072
" />
<path d="M113.7143 54.4072
L113.6190 54.4548
" />
<path d="M113.6190 54.4548
L113.3333 54.4548
" />
<path d="M113.3333 54.4548
L113.2381 54.4072
" />
<path d="M113.2381 54.4072
L113.1905 54.3596
" />
</g><text x="130.0000" y="46.1100"
textLength="1.9643" font-size="1.3333" lengthAdjust="spacingAndGlyphs"
text-anchor="middle" opacity="0" stroke-opacity="0">J1</text>
<g class="stroked-text"><desc>J1</desc>
<path d="M129.6667 45.0648
L129.6667 45.7791
" />
<path d="M129.6667 45.7791
L129.6190 45.9220
" />
<path d="M129.6190 45.9220
L129.5238 46.0172
" />
<path d="M129.5238 46.0172
L129.3810 46.0648
" />
<path d="M129.3810 46.0648
L129.2857 46.0648
" />
<path d="M130.6667 46.0648
L130.0952 46.0648
" />
<path d="M130.3810 46.0648
L130.3810 45.0648
" />
<path d="M130.3810 45.0648
L130.2857 45.2077
" />
<path d="M130.2857 45.2077
L130.1905 45.3029
" />
<path d="M130.1905 45.3029
L130.0952 45.3505
" />
</g><text x="115.4300" y="82.5250"
textLength="2.2500" font-size="1.3333" lengthAdjust="spacingAndGlyphs"
text-anchor="middle" opacity="0" stroke-opacity="0">H2</text>
<g class="stroked-text"><desc>H2</desc>
<path d="M114.6681 82.4798
L114.6681 81.4798
" />
<path d="M114.6681 81.9560
L115.2395 81.9560
" />
<path d="M115.2395 82.4798
L115.2395 81.4798
" />
<path d="M115.6681 81.5751
L115.7157 81.5274
" />
<path d="M115.7157 81.5274
L115.8110 81.4798
" />
<path d="M115.8110 81.4798
L116.0490 81.4798
" />
<path d="M116.0490 81.4798
L116.1443 81.5274
" />
<path d="M116.1443 81.5274
L116.1919 81.5751
" />
<path d="M116.1919 81.5751
L116.2395 81.6703
" />
<path d="M116.2395 81.6703
L116.2395 81.7655
" />
<path d="M116.2395 81.7655
L116.1919 81.9084
" />
<path d="M116.1919 81.9084
L115.6205 82.4798
" />
<path d="M115.6205 82.4798
L116.2395 82.4798
" />
</g><text x="145.4300" y="82.5250"
textLength="2.2500" font-size="1.3333" lengthAdjust="spacingAndGlyphs"
text-anchor="middle" opacity="0" stroke-opacity="0">H1</text>
<g class="stroked-text"><desc>H1</desc>
<path d="M144.6681 82.4798
L144.6681 81.4798
" />
<path d="M144.6681 81.9560
L145.2395 81.9560
" />
<path d="M145.2395 82.4798
L145.2395 81.4798
" />
<path d="M146.2395 82.4798
L145.6681 82.4798
" />
<path d="M145.9538 82.4798
L145.9538 81.4798
" />
<path d="M145.9538 81.4798
L145.8586 81.6227
" />
<path d="M145.8586 81.6227
L145.7633 81.7179
" />
<path d="M145.7633 81.7179
L145.6681 81.7655
" />
</g><text x="143.5727" y="51.9000"
textLength="2.9643" font-size="1.3333" lengthAdjust="spacingAndGlyphs"
text-anchor="middle" opacity="0" stroke-opacity="0">TP1</text>
<g class="stroked-text"><desc>TP1</desc>
<path d="M142.3108 50.8548
L142.8822 50.8548
" />
<path d="M142.5965 51.8548
L142.5965 50.8548
" />
<path d="M143.2155 51.8548
L143.2155 50.8548
" />
<path d="M143.2155 50.8548
L143.5965 50.8548
" />
<path d="M143.5965 50.8548
L143.6917 50.9024
" />
<path d="M143.6917 50.9024
L143.7393 50.9501
" />
<path d="M143.7393 50.9501
L143.7869 51.0453
" />
<path d="M143.7869 51.0453
L143.7869 51.1882
" />
<path d="M143.7869 51.1882
L143.7393 51.2834
" />
<path d="M143.7393 51.2834
L143.6917 51.3310
" />
<path d="M143.6917 51.3310
L143.5965 51.3786
" />
<path d="M143.5965 51.3786
L143.2155 51.3786
" />
<path d="M144.7393 51.8548
L144.1679 51.8548
" />
<path d="M144.4536 51.8548
L144.4536 50.8548
" />
<path d="M144.4536 50.8548
L144.3584 50.9977
" />
<path d="M144.3584 50.9977
L144.2631 51.0929
" />
<path d="M144.2631 51.0929
L144.1679 51.1405
" />
</g><text x="116.5000" y="51.9000"
textLength="2.9643" font-size="1.3333" lengthAdjust="spacingAndGlyphs"
text-anchor="middle" opacity="0" stroke-opacity="0">TP2</text>
<g class="stroked-text"><desc>TP2</desc>
<path d="M115.2381 50.8548
L115.8095 50.8548
" />
<path d="M115.5238 51.8548
L115.5238 50.8548
" />
<path d="M116.1429 51.8548
L116.1429 50.8548
" />
<path d="M116.1429 50.8548
L116.5238 50.8548
" />
<path d="M116.5238 50.8548
L116.6190 50.9024
" />
<path d="M116.6190 50.9024
L116.6667 50.9501
" />
<path d="M116.6667 50.9501
L116.7143 51.0453
" />
<path d="M116.7143 51.0453
L116.7143 51.1882
" />
<path d="M116.7143 51.1882
L116.6667 51.2834
" />
<path d="M116.6667 51.2834
L116.6190 51.3310
" />
<path d="M116.6190 51.3310
L116.5238 51.3786
" />
<path d="M116.5238 51.3786
L116.1429 51.3786
" />
<path d="M117.0952 50.9501
L117.1429 50.9024
" />
<path d="M117.1429 50.9024
L117.2381 50.8548
" />
<path d="M117.2381 50.8548
L117.4762 50.8548
" />
<path d="M117.4762 50.8548
L117.5714 50.9024
" />
<path d="M117.5714 50.9024
L117.6190 50.9501
" />
<path d="M117.6190 50.9501
L117.6667 51.0453
" />
<path d="M117.6667 51.0453
L117.6667 51.1405
" />
<path d="M117.6667 51.1405
L117.6190 51.2834
" />
<path d="M117.6190 51.2834
L117.0476 51.8548
" />
<path d="M117.0476 51.8548
L117.6667 51.8548
" />
</g></g>
<g style="fill:none; 
stroke:#AFAFAF; stroke-width:0.1000; stroke-opacity:1; 
stroke-linecap:round; stroke-linejoin:round;">
<path d="M114.5750 39.3100
L114.5750 39.7100
" />
<path d="M114.5750 39.7100
L145.4250 39.7100
" />
<path d="M121.4500 39.7100
L121.4500 44.2100
" />
<path d="M121.4500 44.2100
L138.5500 44.2100
" />
<path d="M121.8500 33.1400
L121.8500 39.3100
" />
<path d="M121.8500 39.3100
L138.1500 39.3100
" />
<path d="M122.4500 44.2100
L122.4500 47.0100
" />
<path d="M122.4500 47.0100
L137.5500 47.0100
" />
<path d="M123.8600 47.0100
L123.8600 49.9100
" />
<path d="M123.8600 49.9100
L125.0600 49.9100
" />
<path d="M125.0600 47.0100
L123.8600 47.0100
" />
<path d="M125.0600 49.9100
L125.0600 47.0100
" />
<path d="M126.6300 47.0100
L126.6300 49.9100
" />
<path d="M126.6300 49.9100
L127.8300 49.9100
" />
<path d="M127.8300 47.0100
L126.6300 47.0100
" />
<path d="M127.8300 49.9100
L127.8300 47.0100
" />
<path d="M129.4000 47.0100
L129.4000 49.9100
" />
<path d="M129.4000 49.9100
L130.6000 49.9100
" />
<path d="M130.6000 47.0100
L129.4000 47.0100
" />
<path d="M130.6000 49.9100
L130.6000 47.0100
" />
<path d="M132.1700 47.0100
L132.1700 49.9100
" />
<path d="M132.1700 49.9100
L133.3700 49.9100
" />
<path d="M133.3700 47.0100
L132.1700 47.0100
" />
<path d="M133.3700 49.9100
L133.3700 47.0100
" />
<path d="M134.9400 47.0100
L134.9400 49.9100
" />
<path d="M134.9400 49.9100
L136.1400 49.9100
" />
<path d="M136.1400 47.0100
L134.9400 47.0100
" />
<path d="M136.1400 49.9100
L136.1400 47.0100
" />
<path d="M137.5500 44.2100
L122.4500 44.2100
" />
<path d="M137.5500 47.0100
L137.5500 44.2100
" />
<path d="M138.1500 33.1400
L121.8500 33.1400
" />
<path d="M138.1500 39.3100
L138.1500 33.1400
" />
<path d="M138.5500 39.7100
L121.4500 39.7100
" />
<path d="M138.5500 44.2100
L138.5500 39.7100
" />
<path d="M145.4250 39.3100
L114.5750 39.3100
" />
<path d="M145.4250 39.7100
L145.4250 39.3100
" />
</g>
<g style="fill:none; 
stroke:#AFAFAF; stroke-width:0.1270; stroke-opacity:1; 
stroke-linecap:round; stroke-linejoin:round;">
<path d="M118.9950 78.0850
L118.9950 85.9550
" />
<path d="M118.9950 85.9550
L126.8650 85.9550
" />
<path d="M126.8650 78.0850
L118.9950 78.0850
" />
<path d="M126.8650 85.9550
L126.8650 78.0850
" />
<path d="M148.9450 78.0850
L148.9450 85.9550
" />
<path d="M148.9450 85.9550
L156.8150 85.9550
" />
<path d="M156.8150 78.0850
L148.9450 78.0850
" />
<path d="M156.8150 85.9550
L156.8150 78.0850
" />
<path d="M134.0450 78.0850
L134.0450 85.9550
" />
<path d="M134.0450 85.9550
L141.9150 85.9550
" />
<path d="M141.9150 78.0850
L134.0450 78.0850
" />
<path d="M141.9150 85.9550
L141.9150 78.0850
" />
<path d="M103.9950 78.0900
L103.9950 85.9600
" />
<path d="M103.9950 85.9600
L111.8650 85.9600
" />
<path d="M111.8650 78.0900
L103.9950 78.0900
" />
<path d="M111.8650 85.9600
L111.8650 78.0900
" />
</g> 
</svg>
