<?xml version="1.0" standalone="no"?>
 <!DOCTYPE svg PUBLIC "-//W3C//DTD SVG 1.1//EN" 
 "http://www.w3.org/Graphics/SVG/1.1/DTD/svg11.dtd"> 
<svg
  xmlns:svg="http://www.w3.org/2000/svg"
  xmlns="http://www.w3.org/2000/svg"
  xmlns:xlink="http://www.w3.org/1999/xlink"
  version="1.1"
  width="297.0022mm" height="210.0072mm" viewBox="0.0000 0.0000 297.0022 210.0072">
<title>SVG Image created as W48_W49_Nummernschalter_Adapter-F_Silkscreen.svg date 2025/03/28 15:49:43 </title>
  <desc>Image generated by PCBNEW </desc>
<g style="fill:#000000; fill-opacity:1.0000;stroke:#000000; stroke-opacity:1.0000;
stroke-linecap:round; stroke-linejoin:round;"
 transform="translate(0 0) scale(1 1)">
<path style="fill:none; 
stroke:#F2EDA1; stroke-width:2.2500; stroke-opacity:1; 
stroke-linecap:round; stroke-linejoin:round;fill:none"
d="M 114.0257,46.9401
146.0557,46.9333
146.0557,41.9901
146.6924,42.0001
146.9987,42.0095
147.3018,42.0374
147.6010,42.0833
147.8956,42.1470
148.1848,42.2280
148.4679,42.3260
148.7442,42.4405
149.0129,42.5713
149.2733,42.7178
149.5248,42.8798
149.7665,43.0568
149.9977,43.2485
150.2177,43.4544
150.4258,43.6742
150.6212,43.9076
150.8033,44.1541
163.2652,80.8525
163.4298,81.3603
163.5603,81.8687
163.6575,82.3766
163.7222,82.8829
163.7550,83.3865
163.7569,83.8863
163.7285,84.3812
163.6707,84.8701
163.5842,85.3519
163.4698,85.8256
163.3282,86.2900
163.1602,86.7440
162.9666,87.1866
162.7482,87.6166
162.5058,88.0329
162.2400,88.4345
161.9517,88.8202
161.6417,89.1890
161.3107,89.5398
160.9595,89.8714
160.5888,90.1828
160.1995,90.4729
159.7923,90.7405
159.3679,90.9846
158.9273,91.2041
158.4710,91.3979
157.9999,91.5649
157.5148,91.7040
157.0164,91.8141
156.5055,91.8940
155.9829,91.9428
155.4494,91.9593
105.4173,91.9258
104.9001,91.8870
104.3945,91.8178
103.9010,91.7195
103.4204,91.5931
102.9533,91.4395
102.5006,91.2599
102.0628,91.0552
101.6407,90.8265
101.2349,90.5749
100.8461,90.3014
100.4751,90.0069
100.1226,89.6927
99.7891,89.3597
99.4755,89.0089
99.1825,88.6414
98.9106,88.2582
98.6606,87.8603
98.4333,87.4489
98.2292,87.0249
98.0491,86.5894
97.8938,86.1434
97.7638,85.6880
97.6598,85.2242
97.5827,84.7530
97.5330,84.2755
97.5115,83.7927
97.5188,83.3056
97.5556,82.8154
97.6228,82.3230
97.7208,81.8294
97.8505,81.3358
98.0125,80.8431
109.6069,44.0543
109.7754,43.8181
109.9567,43.5942
110.1504,43.3829
110.3556,43.1846
110.5716,42.9998
110.7978,42.8288
111.0335,42.6719
111.2780,42.5296
111.5306,42.4021
111.7906,42.2900
112.0573,42.1936
112.3300,42.1131
112.6080,42.0491
112.8907,42.0019
113.1773,41.9719
113.4672,41.9593
114.0257,41.9593
Z" /> 
</g>
<g style="fill:none; 
stroke:#F2EDA1; stroke-width:0.2000; stroke-opacity:1; 
stroke-linecap:round; stroke-linejoin:round;">
<text x="122.9300" y="89.7750"
textLength="6.4429" font-size="2.0000" lengthAdjust="spacingAndGlyphs"
text-anchor="middle" opacity="0" stroke-opacity="0">GRÜN</text>
<g class="stroked-text"><desc>GRÜN</desc>
<path d="M121.0014 88.1525
L120.8586 88.0810
" />
<path d="M120.8586 88.0810
L120.6443 88.0810
" />
<path d="M120.6443 88.0810
L120.4300 88.1525
" />
<path d="M120.4300 88.1525
L120.2871 88.2953
" />
<path d="M120.2871 88.2953
L120.2157 88.4382
" />
<path d="M120.2157 88.4382
L120.1443 88.7239
" />
<path d="M120.1443 88.7239
L120.1443 88.9382
" />
<path d="M120.1443 88.9382
L120.2157 89.2239
" />
<path d="M120.2157 89.2239
L120.2871 89.3667
" />
<path d="M120.2871 89.3667
L120.4300 89.5096
" />
<path d="M120.4300 89.5096
L120.6443 89.5810
" />
<path d="M120.6443 89.5810
L120.7871 89.5810
" />
<path d="M120.7871 89.5810
L121.0014 89.5096
" />
<path d="M121.0014 89.5096
L121.0729 89.4382
" />
<path d="M121.0729 89.4382
L121.0729 88.9382
" />
<path d="M121.0729 88.9382
L120.7871 88.9382
" />
<path d="M122.5729 89.5810
L122.0729 88.8667
" />
<path d="M121.7157 89.5810
L121.7157 88.0810
" />
<path d="M121.7157 88.0810
L122.2871 88.0810
" />
<path d="M122.2871 88.0810
L122.4300 88.1525
" />
<path d="M122.4300 88.1525
L122.5014 88.2239
" />
<path d="M122.5014 88.2239
L122.5729 88.3667
" />
<path d="M122.5729 88.3667
L122.5729 88.5810
" />
<path d="M122.5729 88.5810
L122.5014 88.7239
" />
<path d="M122.5014 88.7239
L122.4300 88.7953
" />
<path d="M122.4300 88.7953
L122.2871 88.8667
" />
<path d="M122.2871 88.8667
L121.7157 88.8667
" />
<path d="M123.2157 88.0810
L123.2157 89.2953
" />
<path d="M123.2157 89.2953
L123.2871 89.4382
" />
<path d="M123.2871 89.4382
L123.3586 89.5096
" />
<path d="M123.3586 89.5096
L123.5014 89.5810
" />
<path d="M123.5014 89.5810
L123.7871 89.5810
" />
<path d="M123.7871 89.5810
L123.9300 89.5096
" />
<path d="M123.9300 89.5096
L124.0014 89.4382
" />
<path d="M124.0014 89.4382
L124.0729 89.2953
" />
<path d="M124.0729 89.2953
L124.0729 88.0810
" />
<path d="M123.3586 87.5810
L123.4300 87.6525
" />
<path d="M123.4300 87.6525
L123.3586 87.7239
" />
<path d="M123.3586 87.7239
L123.2871 87.6525
" />
<path d="M123.2871 87.6525
L123.3586 87.5810
" />
<path d="M123.3586 87.5810
L123.3586 87.7239
" />
<path d="M123.9300 87.5810
L124.0014 87.6525
" />
<path d="M124.0014 87.6525
L123.9300 87.7239
" />
<path d="M123.9300 87.7239
L123.8586 87.6525
" />
<path d="M123.8586 87.6525
L123.9300 87.5810
" />
<path d="M123.9300 87.5810
L123.9300 87.7239
" />
<path d="M124.7871 89.5810
L124.7871 88.0810
" />
<path d="M124.7871 88.0810
L125.6443 89.5810
" />
<path d="M125.6443 89.5810
L125.6443 88.0810
" />
</g><text x="107.9300" y="89.8250"
textLength="5.8714" font-size="2.0000" lengthAdjust="spacingAndGlyphs"
text-anchor="middle" opacity="0" stroke-opacity="0">GELB</text>
<g class="stroked-text"><desc>GELB</desc>
<path d="M106.2871 88.2025
L106.1443 88.1310
" />
<path d="M106.1443 88.1310
L105.9300 88.1310
" />
<path d="M105.9300 88.1310
L105.7157 88.2025
" />
<path d="M105.7157 88.2025
L105.5729 88.3453
" />
<path d="M105.5729 88.3453
L105.5014 88.4882
" />
<path d="M105.5014 88.4882
L105.4300 88.7739
" />
<path d="M105.4300 88.7739
L105.4300 88.9882
" />
<path d="M105.4300 88.9882
L105.5014 89.2739
" />
<path d="M105.5014 89.2739
L105.5729 89.4167
" />
<path d="M105.5729 89.4167
L105.7157 89.5596
" />
<path d="M105.7157 89.5596
L105.9300 89.6310
" />
<path d="M105.9300 89.6310
L106.0729 89.6310
" />
<path d="M106.0729 89.6310
L106.2871 89.5596
" />
<path d="M106.2871 89.5596
L106.3586 89.4882
" />
<path d="M106.3586 89.4882
L106.3586 88.9882
" />
<path d="M106.3586 88.9882
L106.0729 88.9882
" />
<path d="M107.0014 88.8453
L107.5014 88.8453
" />
<path d="M107.7157 89.6310
L107.0014 89.6310
" />
<path d="M107.0014 89.6310
L107.0014 88.1310
" />
<path d="M107.0014 88.1310
L107.7157 88.1310
" />
<path d="M109.0729 89.6310
L108.3586 89.6310
" />
<path d="M108.3586 89.6310
L108.3586 88.1310
" />
<path d="M110.0729 88.8453
L110.2871 88.9167
" />
<path d="M110.2871 88.9167
L110.3586 88.9882
" />
<path d="M110.3586 88.9882
L110.4300 89.1310
" />
<path d="M110.4300 89.1310
L110.4300 89.3453
" />
<path d="M110.4300 89.3453
L110.3586 89.4882
" />
<path d="M110.3586 89.4882
L110.2871 89.5596
" />
<path d="M110.2871 89.5596
L110.1443 89.6310
" />
<path d="M110.1443 89.6310
L109.5729 89.6310
" />
<path d="M109.5729 89.6310
L109.5729 88.1310
" />
<path d="M109.5729 88.1310
L110.0729 88.1310
" />
<path d="M110.0729 88.1310
L110.2157 88.2025
" />
<path d="M110.2157 88.2025
L110.2871 88.2739
" />
<path d="M110.2871 88.2739
L110.3586 88.4167
" />
<path d="M110.3586 88.4167
L110.3586 88.5596
" />
<path d="M110.3586 88.5596
L110.2871 88.7025
" />
<path d="M110.2871 88.7025
L110.2157 88.7739
" />
<path d="M110.2157 88.7739
L110.0729 88.8453
" />
<path d="M110.0729 88.8453
L109.5729 88.8453
" />
</g><g transform="rotate(-180.000000 130.0000 52.3000)">
<text x="130.0000" y="52.3000"
textLength="6.1314" font-size="1.6000" lengthAdjust="spacingAndGlyphs"
text-anchor="middle" opacity="0" stroke-opacity="0">RS232</text>
</g>
<g class="stroked-text"><desc>RS232</desc>
<path d="M131.9143 52.4573
L132.3143 53.0287
" />
<path d="M132.6000 52.4573
L132.6000 53.6573
" />
<path d="M132.6000 53.6573
L132.1429 53.6573
" />
<path d="M132.1429 53.6573
L132.0286 53.6001
" />
<path d="M132.0286 53.6001
L131.9714 53.5430
" />
<path d="M131.9714 53.5430
L131.9143 53.4287
" />
<path d="M131.9143 53.4287
L131.9143 53.2573
" />
<path d="M131.9143 53.2573
L131.9714 53.1430
" />
<path d="M131.9714 53.1430
L132.0286 53.0858
" />
<path d="M132.0286 53.0858
L132.1429 53.0287
" />
<path d="M132.1429 53.0287
L132.6000 53.0287
" />
<path d="M131.4571 52.5144
L131.2857 52.4573
" />
<path d="M131.2857 52.4573
L131.0000 52.4573
" />
<path d="M131.0000 52.4573
L130.8857 52.5144
" />
<path d="M130.8857 52.5144
L130.8286 52.5715
" />
<path d="M130.8286 52.5715
L130.7714 52.6858
" />
<path d="M130.7714 52.6858
L130.7714 52.8001
" />
<path d="M130.7714 52.8001
L130.8286 52.9144
" />
<path d="M130.8286 52.9144
L130.8857 52.9715
" />
<path d="M130.8857 52.9715
L131.0000 53.0287
" />
<path d="M131.0000 53.0287
L131.2286 53.0858
" />
<path d="M131.2286 53.0858
L131.3429 53.1430
" />
<path d="M131.3429 53.1430
L131.4000 53.2001
" />
<path d="M131.4000 53.2001
L131.4571 53.3144
" />
<path d="M131.4571 53.3144
L131.4571 53.4287
" />
<path d="M131.4571 53.4287
L131.4000 53.5430
" />
<path d="M131.4000 53.5430
L131.3429 53.6001
" />
<path d="M131.3429 53.6001
L131.2286 53.6573
" />
<path d="M131.2286 53.6573
L130.9429 53.6573
" />
<path d="M130.9429 53.6573
L130.7714 53.6001
" />
<path d="M130.3143 53.5430
L130.2571 53.6001
" />
<path d="M130.2571 53.6001
L130.1429 53.6573
" />
<path d="M130.1429 53.6573
L129.8571 53.6573
" />
<path d="M129.8571 53.6573
L129.7429 53.6001
" />
<path d="M129.7429 53.6001
L129.6857 53.5430
" />
<path d="M129.6857 53.5430
L129.6286 53.4287
" />
<path d="M129.6286 53.4287
L129.6286 53.3144
" />
<path d="M129.6286 53.3144
L129.6857 53.1430
" />
<path d="M129.6857 53.1430
L130.3714 52.4573
" />
<path d="M130.3714 52.4573
L129.6286 52.4573
" />
<path d="M129.2286 53.6573
L128.4857 53.6573
" />
<path d="M128.4857 53.6573
L128.8857 53.2001
" />
<path d="M128.8857 53.2001
L128.7143 53.2001
" />
<path d="M128.7143 53.2001
L128.6000 53.1430
" />
<path d="M128.6000 53.1430
L128.5429 53.0858
" />
<path d="M128.5429 53.0858
L128.4857 52.9715
" />
<path d="M128.4857 52.9715
L128.4857 52.6858
" />
<path d="M128.4857 52.6858
L128.5429 52.5715
" />
<path d="M128.5429 52.5715
L128.6000 52.5144
" />
<path d="M128.6000 52.5144
L128.7143 52.4573
" />
<path d="M128.7143 52.4573
L129.0571 52.4573
" />
<path d="M129.0571 52.4573
L129.1714 52.5144
" />
<path d="M129.1714 52.5144
L129.2286 52.5715
" />
<path d="M128.0286 53.5430
L127.9714 53.6001
" />
<path d="M127.9714 53.6001
L127.8571 53.6573
" />
<path d="M127.8571 53.6573
L127.5714 53.6573
" />
<path d="M127.5714 53.6573
L127.4571 53.6001
" />
<path d="M127.4571 53.6001
L127.4000 53.5430
" />
<path d="M127.4000 53.5430
L127.3429 53.4287
" />
<path d="M127.3429 53.4287
L127.3429 53.3144
" />
<path d="M127.3429 53.3144
L127.4000 53.1430
" />
<path d="M127.4000 53.1430
L128.0857 52.4573
" />
<path d="M128.0857 52.4573
L127.3429 52.4573
" />
</g><text x="130.3000" y="59.9000"
textLength="19.5924" font-size="1.7333" lengthAdjust="spacingAndGlyphs"
text-anchor="middle" opacity="0" stroke-opacity="0">GE   GR   BR   WE</text>
<g class="stroked-text"><desc>GE   GR   BR   WE</desc>
<path d="M121.6643 58.4924
L121.5405 58.4305
" />
<path d="M121.5405 58.4305
L121.3548 58.4305
" />
<path d="M121.3548 58.4305
L121.1690 58.4924
" />
<path d="M121.1690 58.4924
L121.0452 58.6162
" />
<path d="M121.0452 58.6162
L120.9833 58.7400
" />
<path d="M120.9833 58.7400
L120.9214 58.9876
" />
<path d="M120.9214 58.9876
L120.9214 59.1734
" />
<path d="M120.9214 59.1734
L120.9833 59.4210
" />
<path d="M120.9833 59.4210
L121.0452 59.5448
" />
<path d="M121.0452 59.5448
L121.1690 59.6686
" />
<path d="M121.1690 59.6686
L121.3548 59.7305
" />
<path d="M121.3548 59.7305
L121.4786 59.7305
" />
<path d="M121.4786 59.7305
L121.6643 59.6686
" />
<path d="M121.6643 59.6686
L121.7262 59.6067
" />
<path d="M121.7262 59.6067
L121.7262 59.1734
" />
<path d="M121.7262 59.1734
L121.4786 59.1734
" />
<path d="M122.2833 59.0496
L122.7167 59.0496
" />
<path d="M122.9024 59.7305
L122.2833 59.7305
" />
<path d="M122.2833 59.7305
L122.2833 58.4305
" />
<path d="M122.2833 58.4305
L122.9024 58.4305
" />
<path d="M127.1119 58.4924
L126.9881 58.4305
" />
<path d="M126.9881 58.4305
L126.8024 58.4305
" />
<path d="M126.8024 58.4305
L126.6167 58.4924
" />
<path d="M126.6167 58.4924
L126.4929 58.6162
" />
<path d="M126.4929 58.6162
L126.4310 58.7400
" />
<path d="M126.4310 58.7400
L126.3690 58.9876
" />
<path d="M126.3690 58.9876
L126.3690 59.1734
" />
<path d="M126.3690 59.1734
L126.4310 59.4210
" />
<path d="M126.4310 59.4210
L126.4929 59.5448
" />
<path d="M126.4929 59.5448
L126.6167 59.6686
" />
<path d="M126.6167 59.6686
L126.8024 59.7305
" />
<path d="M126.8024 59.7305
L126.9262 59.7305
" />
<path d="M126.9262 59.7305
L127.1119 59.6686
" />
<path d="M127.1119 59.6686
L127.1738 59.6067
" />
<path d="M127.1738 59.6067
L127.1738 59.1734
" />
<path d="M127.1738 59.1734
L126.9262 59.1734
" />
<path d="M128.4738 59.7305
L128.0405 59.1115
" />
<path d="M127.7310 59.7305
L127.7310 58.4305
" />
<path d="M127.7310 58.4305
L128.2262 58.4305
" />
<path d="M128.2262 58.4305
L128.3500 58.4924
" />
<path d="M128.3500 58.4924
L128.4119 58.5543
" />
<path d="M128.4119 58.5543
L128.4738 58.6781
" />
<path d="M128.4738 58.6781
L128.4738 58.8638
" />
<path d="M128.4738 58.8638
L128.4119 58.9876
" />
<path d="M128.4119 58.9876
L128.3500 59.0496
" />
<path d="M128.3500 59.0496
L128.2262 59.1115
" />
<path d="M128.2262 59.1115
L127.7310 59.1115
" />
<path d="M132.4357 59.0496
L132.6214 59.1115
" />
<path d="M132.6214 59.1115
L132.6833 59.1734
" />
<path d="M132.6833 59.1734
L132.7452 59.2972
" />
<path d="M132.7452 59.2972
L132.7452 59.4829
" />
<path d="M132.7452 59.4829
L132.6833 59.6067
" />
<path d="M132.6833 59.6067
L132.6214 59.6686
" />
<path d="M132.6214 59.6686
L132.4976 59.7305
" />
<path d="M132.4976 59.7305
L132.0024 59.7305
" />
<path d="M132.0024 59.7305
L132.0024 58.4305
" />
<path d="M132.0024 58.4305
L132.4357 58.4305
" />
<path d="M132.4357 58.4305
L132.5595 58.4924
" />
<path d="M132.5595 58.4924
L132.6214 58.5543
" />
<path d="M132.6214 58.5543
L132.6833 58.6781
" />
<path d="M132.6833 58.6781
L132.6833 58.8019
" />
<path d="M132.6833 58.8019
L132.6214 58.9257
" />
<path d="M132.6214 58.9257
L132.5595 58.9876
" />
<path d="M132.5595 58.9876
L132.4357 59.0496
" />
<path d="M132.4357 59.0496
L132.0024 59.0496
" />
<path d="M134.0452 59.7305
L133.6119 59.1115
" />
<path d="M133.3024 59.7305
L133.3024 58.4305
" />
<path d="M133.3024 58.4305
L133.7976 58.4305
" />
<path d="M133.7976 58.4305
L133.9214 58.4924
" />
<path d="M133.9214 58.4924
L133.9833 58.5543
" />
<path d="M133.9833 58.5543
L134.0452 58.6781
" />
<path d="M134.0452 58.6781
L134.0452 58.8638
" />
<path d="M134.0452 58.8638
L133.9833 58.9876
" />
<path d="M133.9833 58.9876
L133.9214 59.0496
" />
<path d="M133.9214 59.0496
L133.7976 59.1115
" />
<path d="M133.7976 59.1115
L133.3024 59.1115
" />
<path d="M137.4500 58.4305
L137.7595 59.7305
" />
<path d="M137.7595 59.7305
L138.0071 58.8019
" />
<path d="M138.0071 58.8019
L138.2548 59.7305
" />
<path d="M138.2548 59.7305
L138.5643 58.4305
" />
<path d="M139.0595 59.0496
L139.4929 59.0496
" />
<path d="M139.6786 59.7305
L139.0595 59.7305
" />
<path d="M139.0595 59.7305
L139.0595 58.4305
" />
<path d="M139.0595 58.4305
L139.6786 58.4305
" />
</g><text x="152.8800" y="89.7750"
textLength="6.9429" font-size="2.0000" lengthAdjust="spacingAndGlyphs"
text-anchor="middle" opacity="0" stroke-opacity="0">WEISS</text>
<g class="stroked-text"><desc>WEISS</desc>
<path d="M149.7729 88.0810
L150.1300 89.5810
" />
<path d="M150.1300 89.5810
L150.4157 88.5096
" />
<path d="M150.4157 88.5096
L150.7014 89.5810
" />
<path d="M150.7014 89.5810
L151.0586 88.0810
" />
<path d="M151.6300 88.7953
L152.1300 88.7953
" />
<path d="M152.3443 89.5810
L151.6300 89.5810
" />
<path d="M151.6300 89.5810
L151.6300 88.0810
" />
<path d="M151.6300 88.0810
L152.3443 88.0810
" />
<path d="M152.9871 89.5810
L152.9871 88.0810
" />
<path d="M153.6300 89.5096
L153.8443 89.5810
" />
<path d="M153.8443 89.5810
L154.2014 89.5810
" />
<path d="M154.2014 89.5810
L154.3443 89.5096
" />
<path d="M154.3443 89.5096
L154.4157 89.4382
" />
<path d="M154.4157 89.4382
L154.4871 89.2953
" />
<path d="M154.4871 89.2953
L154.4871 89.1525
" />
<path d="M154.4871 89.1525
L154.4157 89.0096
" />
<path d="M154.4157 89.0096
L154.3443 88.9382
" />
<path d="M154.3443 88.9382
L154.2014 88.8667
" />
<path d="M154.2014 88.8667
L153.9157 88.7953
" />
<path d="M153.9157 88.7953
L153.7729 88.7239
" />
<path d="M153.7729 88.7239
L153.7014 88.6525
" />
<path d="M153.7014 88.6525
L153.6300 88.5096
" />
<path d="M153.6300 88.5096
L153.6300 88.3667
" />
<path d="M153.6300 88.3667
L153.7014 88.2239
" />
<path d="M153.7014 88.2239
L153.7729 88.1525
" />
<path d="M153.7729 88.1525
L153.9157 88.0810
" />
<path d="M153.9157 88.0810
L154.2729 88.0810
" />
<path d="M154.2729 88.0810
L154.4871 88.1525
" />
<path d="M155.0586 89.5096
L155.2729 89.5810
" />
<path d="M155.2729 89.5810
L155.6300 89.5810
" />
<path d="M155.6300 89.5810
L155.7729 89.5096
" />
<path d="M155.7729 89.5096
L155.8443 89.4382
" />
<path d="M155.8443 89.4382
L155.9157 89.2953
" />
<path d="M155.9157 89.2953
L155.9157 89.1525
" />
<path d="M155.9157 89.1525
L155.8443 89.0096
" />
<path d="M155.8443 89.0096
L155.7729 88.9382
" />
<path d="M155.7729 88.9382
L155.6300 88.8667
" />
<path d="M155.6300 88.8667
L155.3443 88.7953
" />
<path d="M155.3443 88.7953
L155.2014 88.7239
" />
<path d="M155.2014 88.7239
L155.1300 88.6525
" />
<path d="M155.1300 88.6525
L155.0586 88.5096
" />
<path d="M155.0586 88.5096
L155.0586 88.3667
" />
<path d="M155.0586 88.3667
L155.1300 88.2239
" />
<path d="M155.1300 88.2239
L155.2014 88.1525
" />
<path d="M155.2014 88.1525
L155.3443 88.0810
" />
<path d="M155.3443 88.0810
L155.7014 88.0810
" />
<path d="M155.7014 88.0810
L155.9157 88.1525
" />
</g><text x="137.9800" y="89.7750"
textLength="7.7286" font-size="2.0000" lengthAdjust="spacingAndGlyphs"
text-anchor="middle" opacity="0" stroke-opacity="0">BRAUN</text>
<g class="stroked-text"><desc>BRAUN</desc>
<path d="M135.1229 88.7953
L135.3371 88.8667
" />
<path d="M135.3371 88.8667
L135.4086 88.9382
" />
<path d="M135.4086 88.9382
L135.4800 89.0810
" />
<path d="M135.4800 89.0810
L135.4800 89.2953
" />
<path d="M135.4800 89.2953
L135.4086 89.4382
" />
<path d="M135.4086 89.4382
L135.3371 89.5096
" />
<path d="M135.3371 89.5096
L135.1943 89.5810
" />
<path d="M135.1943 89.5810
L134.6229 89.5810
" />
<path d="M134.6229 89.5810
L134.6229 88.0810
" />
<path d="M134.6229 88.0810
L135.1229 88.0810
" />
<path d="M135.1229 88.0810
L135.2657 88.1525
" />
<path d="M135.2657 88.1525
L135.3371 88.2239
" />
<path d="M135.3371 88.2239
L135.4086 88.3667
" />
<path d="M135.4086 88.3667
L135.4086 88.5096
" />
<path d="M135.4086 88.5096
L135.3371 88.6525
" />
<path d="M135.3371 88.6525
L135.2657 88.7239
" />
<path d="M135.2657 88.7239
L135.1229 88.7953
" />
<path d="M135.1229 88.7953
L134.6229 88.7953
" />
<path d="M136.9800 89.5810
L136.4800 88.8667
" />
<path d="M136.1229 89.5810
L136.1229 88.0810
" />
<path d="M136.1229 88.0810
L136.6943 88.0810
" />
<path d="M136.6943 88.0810
L136.8371 88.1525
" />
<path d="M136.8371 88.1525
L136.9086 88.2239
" />
<path d="M136.9086 88.2239
L136.9800 88.3667
" />
<path d="M136.9800 88.3667
L136.9800 88.5810
" />
<path d="M136.9800 88.5810
L136.9086 88.7239
" />
<path d="M136.9086 88.7239
L136.8371 88.7953
" />
<path d="M136.8371 88.7953
L136.6943 88.8667
" />
<path d="M136.6943 88.8667
L136.1229 88.8667
" />
<path d="M137.5514 89.1525
L138.2657 89.1525
" />
<path d="M137.4086 89.5810
L137.9086 88.0810
" />
<path d="M137.9086 88.0810
L138.4086 89.5810
" />
<path d="M138.9086 88.0810
L138.9086 89.2953
" />
<path d="M138.9086 89.2953
L138.9800 89.4382
" />
<path d="M138.9800 89.4382
L139.0514 89.5096
" />
<path d="M139.0514 89.5096
L139.1943 89.5810
" />
<path d="M139.1943 89.5810
L139.4800 89.5810
" />
<path d="M139.4800 89.5810
L139.6229 89.5096
" />
<path d="M139.6229 89.5096
L139.6943 89.4382
" />
<path d="M139.6943 89.4382
L139.7657 89.2953
" />
<path d="M139.7657 89.2953
L139.7657 88.0810
" />
<path d="M140.4800 89.5810
L140.4800 88.0810
" />
<path d="M140.4800 88.0810
L141.3371 89.5810
" />
<path d="M141.3371 89.5810
L141.3371 88.0810
" />
</g></g>
<g style="fill:none; 
stroke:#F2EDA1; stroke-width:0.1200; stroke-opacity:1; 
stroke-linecap:round; stroke-linejoin:round;">
<path d="M123.0367 49.0000
L123.0367 51.2400
" />
<path d="M123.0367 51.2400
L127.2300 51.2400
" />
<path d="M123.2767 47.2600
L123.2767 51.0000
" />
<path d="M123.2767 51.0000
L136.7233 51.0000
" />
<path d="M136.7233 51.0000
L136.7233 47.2600
" />
</g>
<g style="fill:none; 
stroke:#F2EDA1; stroke-width:0.1270; stroke-opacity:1; 
stroke-linecap:round; stroke-linejoin:round;">
<path d="M118.9950 83.7800
L118.9950 80.2600
" />
<path d="M123.6850 78.0850
L122.1750 78.0850
" />
<path d="M123.6850 85.9550
L122.1750 85.9550
" />
<path d="M126.8650 83.7800
L126.8650 80.2600
" />
<path d="M148.9450 83.7800
L148.9450 80.2600
" />
<path d="M153.6350 78.0850
L152.1250 78.0850
" />
<path d="M153.6350 85.9550
L152.1250 85.9550
" />
<path d="M156.8150 83.7800
L156.8150 80.2600
" />
</g>
<g style="fill:none; 
stroke:#F2EDA1; stroke-width:0.1200; stroke-opacity:1; 
stroke-linecap:round; stroke-linejoin:round;">
<path d="M119.5500 60.5000
L141.0500 60.5000
" />
<path d="M119.5500 65.5000
L119.5500 60.5000
" />
<path d="M119.5500 65.5000
L123.5500 65.5000
" />
<path d="M123.5500 65.5000
L123.5500 69.0000
" />
</g>
<g style="fill:none; 
stroke:#F2EDA1; stroke-width:0.2000; stroke-opacity:1; 
stroke-linecap:round; stroke-linejoin:round;">
<path d="M123.5500 69.0000
L137.0500 69.0000
" />
</g>
<g style="fill:none; 
stroke:#F2EDA1; stroke-width:0.1200; stroke-opacity:1; 
stroke-linecap:round; stroke-linejoin:round;">
<path d="M137.0500 65.5000
L137.0500 69.0000
" />
<path d="M137.0500 65.5000
L141.0500 65.5000
" />
<path d="M141.0500 65.5000
L141.0500 60.5000
" />
</g>
<g style="fill:none; 
stroke:#F2EDA1; stroke-width:0.1270; stroke-opacity:1; 
stroke-linecap:round; stroke-linejoin:round;">
<path d="M134.0450 83.7800
L134.0450 80.2600
" />
<path d="M138.7350 78.0850
L137.2250 78.0850
" />
<path d="M138.7350 85.9550
L137.2250 85.9550
" />
<path d="M141.9150 83.7800
L141.9150 80.2600
" />
</g>
<g style="fill:none; 
stroke:#F2EDA1; stroke-width:0.1200; stroke-opacity:1; 
stroke-linecap:round; stroke-linejoin:round;">
<path d="M141.8727 47.3000
L145.2727 47.3000
" />
<path d="M141.8727 50.7000
L141.8727 47.3000
" />
<path d="M145.2727 47.3000
L145.2727 50.7000
" />
<path d="M145.2727 50.7000
L141.8727 50.7000
" />
</g>
<g style="fill:none; 
stroke:#F2EDA1; stroke-width:0.1270; stroke-opacity:1; 
stroke-linecap:round; stroke-linejoin:round;">
<path d="M103.9950 83.7850
L103.9950 80.2650
" />
<path d="M108.6850 78.0900
L107.1750 78.0900
" />
<path d="M108.6850 85.9600
L107.1750 85.9600
" />
<path d="M111.8650 83.7850
L111.8650 80.2650
" />
</g>
<g style="fill:none; 
stroke:#F2EDA1; stroke-width:0.1200; stroke-opacity:1; 
stroke-linecap:round; stroke-linejoin:round;">
<path d="M114.8000 47.3000
L118.2000 47.3000
" />
<path d="M114.8000 50.7000
L114.8000 47.3000
" />
<path d="M118.2000 47.3000
L118.2000 50.7000
" />
<path d="M118.2000 50.7000
L114.8000 50.7000
" />
</g> 
</svg>
