<?xml version="1.0" standalone="no"?>
 <!DOCTYPE svg PUBLIC "-//W3C//DTD SVG 1.1//EN" 
 "http://www.w3.org/Graphics/SVG/1.1/DTD/svg11.dtd"> 
<svg
  xmlns:svg="http://www.w3.org/2000/svg"
  xmlns="http://www.w3.org/2000/svg"
  xmlns:xlink="http://www.w3.org/1999/xlink"
  version="1.1"
  width="297.0022mm" height="210.0072mm" viewBox="0.0000 0.0000 297.0022 210.0072">
<title>SVG Image created as W48_W49_Nummernschalter_Adapter-F_Courtyard.svg date 2025/03/28 15:49:43 </title>
  <desc>Image generated by PCBNEW </desc>
<g style="fill:#000000; fill-opacity:1.0000;stroke:#000000; stroke-opacity:1.0000;
stroke-linecap:round; stroke-linejoin:round;"
 transform="translate(0 0) scale(1 1)">
</g>
<g style="fill:none; 
stroke:#FF26E2; stroke-width:0.0500; stroke-opacity:1; 
stroke-linecap:round; stroke-linejoin:round;">
<circle cx="147.0000" cy="54.0000" r="3.0500" /> 
<circle cx="113.0000" cy="54.0000" r="3.0500" /> 
<path d="M114.0500 38.8000
L121.3500 38.8000
" />
<path d="M114.0500 40.2000
L114.0500 38.8000
" />
<path d="M120.9500 40.2000
L114.0500 40.2000
" />
<path d="M120.9500 44.7000
L120.9500 40.2000
" />
<path d="M121.3500 32.6000
L138.6500 32.6000
" />
<path d="M121.3500 38.8000
L121.3500 32.6000
" />
<path d="M121.9500 44.7000
L120.9500 44.7000
" />
<path d="M121.9500 47.5000
L121.9500 44.7000
" />
<path d="M123.0000 47.5000
L121.9500 47.5000
" />
<path d="M123.0000 51.2500
L123.0000 47.5000
" />
<path d="M137.0000 47.5000
L137.0000 51.2500
" />
<path d="M137.0000 51.2500
L123.0000 51.2500
" />
<path d="M138.0500 44.7000
L138.0500 47.5000
" />
<path d="M138.0500 47.5000
L137.0000 47.5000
" />
<path d="M138.6500 32.6000
L138.6500 38.8000
" />
<path d="M138.6500 38.8000
L145.9500 38.8000
" />
<path d="M139.0500 40.2000
L139.0500 44.7000
" />
<path d="M139.0500 44.7000
L138.0500 44.7000
" />
<path d="M145.9500 38.8000
L145.9500 40.2000
" />
<path d="M145.9500 40.2000
L139.0500 40.2000
" />
<circle cx="115.4300" cy="82.0250" r="3.0500" /> 
<path d="M118.7450 76.8400
L118.7450 87.2000
" />
<path d="M118.7450 87.2000
L127.1150 87.2000
" />
<path d="M127.1150 76.8400
L118.7450 76.8400
" />
<path d="M127.1150 87.2000
L127.1150 76.8400
" />
<circle cx="145.4300" cy="82.0250" r="3.0500" /> 
<path d="M148.6950 76.8400
L148.6950 87.2000
" />
<path d="M148.6950 87.2000
L157.0650 87.2000
" />
<path d="M157.0650 76.8400
L148.6950 76.8400
" />
<path d="M157.0650 87.2000
L157.0650 76.8400
" />
<path d="M118.9520 59.9520
L118.9520 69.6040
" />
<path d="M118.9520 59.9520
L141.5580 59.9520
" />
<path d="M141.5580 59.9520
L141.5580 69.6040
" />
<path d="M141.5580 69.6040
L118.9520 69.6040
" />
<path d="M133.7950 76.8400
L133.7950 87.2000
" />
<path d="M133.7950 87.2000
L142.1650 87.2000
" />
<path d="M142.1650 76.8400
L133.7950 76.8400
" />
<path d="M142.1650 87.2000
L142.1650 76.8400
" />
<path d="M141.5727 47.0000
L141.5727 51.0000
" />
<path d="M141.5727 47.0000
L145.5727 47.0000
" />
<path d="M145.5727 51.0000
L141.5727 51.0000
" />
<path d="M145.5727 51.0000
L145.5727 47.0000
" />
<path d="M103.7450 76.8450
L103.7450 87.2050
" />
<path d="M103.7450 87.2050
L112.1150 87.2050
" />
<path d="M112.1150 76.8450
L103.7450 76.8450
" />
<path d="M112.1150 87.2050
L112.1150 76.8450
" />
<path d="M114.5000 47.0000
L114.5000 51.0000
" />
<path d="M114.5000 47.0000
L118.5000 47.0000
" />
<path d="M118.5000 51.0000
L114.5000 51.0000
" />
<path d="M118.5000 51.0000
L118.5000 47.0000
" />
</g> 
</svg>
