<?xml version="1.0" standalone="no"?>
 <!DOCTYPE svg PUBLIC "-//W3C//DTD SVG 1.1//EN" 
 "http://www.w3.org/Graphics/SVG/1.1/DTD/svg11.dtd"> 
<svg
  xmlns:svg="http://www.w3.org/2000/svg"
  xmlns="http://www.w3.org/2000/svg"
  xmlns:xlink="http://www.w3.org/1999/xlink"
  version="1.1"
  width="297.0022mm" height="210.0072mm" viewBox="0.0000 0.0000 297.0022 210.0072">
<title>SVG Image created as W48_W49_Nummernschalter_Adapter-Edge_Cuts.svg date 2025/03/28 15:49:43 </title>
  <desc>Image generated by PCBNEW </desc>
<g style="fill:#000000; fill-opacity:1.0000;stroke:#000000; stroke-opacity:1.0000;
stroke-linecap:round; stroke-linejoin:round;"
 transform="translate(0 0) scale(1 1)">
</g>
<g style="fill:none; 
stroke:#D0D2CD; stroke-width:0.0500; stroke-opacity:1; 
stroke-linecap:round; stroke-linejoin:round;">
<path d="M97.9868 80.8430 A8.2708 8.2708 0.0 0 0 105.3916 91.9257" />
<path d="M146.0300 46.9592
L146.0300 41.9900
" />
<path d="M114.0000 46.9400
L114.0000 41.9592
" />
<circle cx="152.8800" cy="82.0514" r="1.5264" /> 
<circle cx="137.9800" cy="82.0250" r="1.5264" /> 
<path d="M113.4415 41.9592 A4.7121 4.7121 0.0 0 0 109.5812 44.0542" />
<path d="M150.7776 44.1539
L163.2395 80.8524
" />
<circle cx="122.9300" cy="82.0250" r="1.5264" /> 
<path d="M146.0300 41.9900
L146.6667 42.0000
" />
<circle cx="107.9300" cy="82.0250" r="1.5264" /> 
<path d="M146.0300 46.9592
L114.0000 46.9400
" />
<path d="M155.4237 91.9592
L105.3916 91.9257
" />
<path d="M150.7776 44.1540 A5.0000 5.0000 0.0 0 0 146.6667 42.0000" />
<path d="M109.5812 44.0542
L97.9868 80.8430
" />
<path d="M114.0000 41.9592
L113.4415 41.9592
" />
<path d="M155.4237 91.9592 A8.3033 8.3033 0.0 0 0 163.2395 80.8524" />
</g> 
</svg>
