%TF.GenerationSoftware,KiCad,Pcbnew,8.0.3*%
%TF.CreationDate,2024-06-22T21:50:30+02:00*%
%TF.ProjectId,W48_W49_Nummernschalter_Adapter,5734385f-5734-4395-9f4e-756d6d65726e,rev?*%
%TF.SameCoordinates,Original*%
%TF.FileFunction,Legend,Top*%
%TF.FilePolarity,Positive*%
%FSLAX46Y46*%
G04 Gerber Fmt 4.6, Leading zero omitted, Abs format (unit mm)*
G04 Created by KiCad (PCBNEW 8.0.3) date 2024-06-22 21:50:30*
%MOMM*%
%LPD*%
G01*
G04 APERTURE LIST*
%ADD10C,2.249999*%
%ADD11C,0.200000*%
%ADD12C,0.120000*%
%ADD13C,0.127000*%
%ADD14C,3.600000*%
%ADD15C,5.600000*%
%ADD16R,1.846667X3.480000*%
%ADD17C,3.054000*%
%ADD18R,4.000000X4.000000*%
%ADD19R,3.000000X3.000000*%
G04 APERTURE END LIST*
D10*
X114025694Y-46940138D02*
X146055686Y-46933272D01*
X146055686Y-41990142D01*
X146692389Y-42000140D01*
X146998675Y-42009515D01*
X147301786Y-42037373D01*
X147600990Y-42083333D01*
X147895559Y-42147012D01*
X148184763Y-42228028D01*
X148467872Y-42325998D01*
X148744158Y-42440541D01*
X149012890Y-42571273D01*
X149273340Y-42717813D01*
X149524777Y-42879778D01*
X149766473Y-43056786D01*
X149997697Y-43248454D01*
X150217720Y-43454401D01*
X150425813Y-43674244D01*
X150621246Y-43907601D01*
X150803290Y-44154090D01*
X163265189Y-80852538D01*
X163429796Y-81360332D01*
X163560314Y-81868717D01*
X163657513Y-82376599D01*
X163722164Y-82882880D01*
X163755039Y-83386465D01*
X163756909Y-83886258D01*
X163728546Y-84381163D01*
X163670720Y-84870083D01*
X163584202Y-85351923D01*
X163469765Y-85825587D01*
X163328179Y-86289979D01*
X163160216Y-86744003D01*
X162966646Y-87186562D01*
X162748241Y-87616562D01*
X162505773Y-88032905D01*
X162240012Y-88434496D01*
X161951729Y-88820240D01*
X161641697Y-89189039D01*
X161310686Y-89539798D01*
X160959468Y-89871421D01*
X160588813Y-90182811D01*
X160199493Y-90472874D01*
X159792279Y-90740513D01*
X159367943Y-90984632D01*
X158927256Y-91204134D01*
X158470988Y-91397925D01*
X157999912Y-91564908D01*
X157514798Y-91703986D01*
X157016418Y-91814065D01*
X156505543Y-91894048D01*
X155982944Y-91942839D01*
X155449393Y-91959342D01*
X105417296Y-91925841D01*
X104900134Y-91886953D01*
X104394464Y-91817835D01*
X103900979Y-91719527D01*
X103420375Y-91593069D01*
X102953345Y-91439499D01*
X102500585Y-91259857D01*
X102062789Y-91055183D01*
X101640651Y-90826516D01*
X101234866Y-90574895D01*
X100846128Y-90301360D01*
X100475132Y-90006950D01*
X100122572Y-89692705D01*
X99789142Y-89359665D01*
X99475538Y-89008868D01*
X99182454Y-88641354D01*
X98910584Y-88258162D01*
X98660623Y-87860333D01*
X98433264Y-87448904D01*
X98229204Y-87024917D01*
X98049135Y-86589410D01*
X97893754Y-86143422D01*
X97763753Y-85687994D01*
X97659828Y-85224164D01*
X97582673Y-84752972D01*
X97532982Y-84275458D01*
X97511451Y-83792661D01*
X97518774Y-83305619D01*
X97555644Y-82815374D01*
X97622757Y-82322964D01*
X97720807Y-81829428D01*
X97850488Y-81335806D01*
X98012496Y-80843138D01*
X109606894Y-44054343D01*
X109775353Y-43818112D01*
X109956747Y-43594168D01*
X110150384Y-43382888D01*
X110355573Y-43184647D01*
X110571623Y-42999819D01*
X110797842Y-42828779D01*
X111033538Y-42671905D01*
X111278020Y-42529569D01*
X111530597Y-42402149D01*
X111790577Y-42290018D01*
X112057268Y-42193553D01*
X112329979Y-42113128D01*
X112608018Y-42049120D01*
X112890695Y-42001902D01*
X113177316Y-41971851D01*
X113467192Y-41959342D01*
X114025694Y-41959342D01*
X114025694Y-46940138D01*
D11*
X121001428Y-88152457D02*
X120858571Y-88081028D01*
X120858571Y-88081028D02*
X120644285Y-88081028D01*
X120644285Y-88081028D02*
X120429999Y-88152457D01*
X120429999Y-88152457D02*
X120287142Y-88295314D01*
X120287142Y-88295314D02*
X120215713Y-88438171D01*
X120215713Y-88438171D02*
X120144285Y-88723885D01*
X120144285Y-88723885D02*
X120144285Y-88938171D01*
X120144285Y-88938171D02*
X120215713Y-89223885D01*
X120215713Y-89223885D02*
X120287142Y-89366742D01*
X120287142Y-89366742D02*
X120429999Y-89509600D01*
X120429999Y-89509600D02*
X120644285Y-89581028D01*
X120644285Y-89581028D02*
X120787142Y-89581028D01*
X120787142Y-89581028D02*
X121001428Y-89509600D01*
X121001428Y-89509600D02*
X121072856Y-89438171D01*
X121072856Y-89438171D02*
X121072856Y-88938171D01*
X121072856Y-88938171D02*
X120787142Y-88938171D01*
X122572856Y-89581028D02*
X122072856Y-88866742D01*
X121715713Y-89581028D02*
X121715713Y-88081028D01*
X121715713Y-88081028D02*
X122287142Y-88081028D01*
X122287142Y-88081028D02*
X122429999Y-88152457D01*
X122429999Y-88152457D02*
X122501428Y-88223885D01*
X122501428Y-88223885D02*
X122572856Y-88366742D01*
X122572856Y-88366742D02*
X122572856Y-88581028D01*
X122572856Y-88581028D02*
X122501428Y-88723885D01*
X122501428Y-88723885D02*
X122429999Y-88795314D01*
X122429999Y-88795314D02*
X122287142Y-88866742D01*
X122287142Y-88866742D02*
X121715713Y-88866742D01*
X123215713Y-88081028D02*
X123215713Y-89295314D01*
X123215713Y-89295314D02*
X123287142Y-89438171D01*
X123287142Y-89438171D02*
X123358571Y-89509600D01*
X123358571Y-89509600D02*
X123501428Y-89581028D01*
X123501428Y-89581028D02*
X123787142Y-89581028D01*
X123787142Y-89581028D02*
X123929999Y-89509600D01*
X123929999Y-89509600D02*
X124001428Y-89438171D01*
X124001428Y-89438171D02*
X124072856Y-89295314D01*
X124072856Y-89295314D02*
X124072856Y-88081028D01*
X123358571Y-87581028D02*
X123429999Y-87652457D01*
X123429999Y-87652457D02*
X123358571Y-87723885D01*
X123358571Y-87723885D02*
X123287142Y-87652457D01*
X123287142Y-87652457D02*
X123358571Y-87581028D01*
X123358571Y-87581028D02*
X123358571Y-87723885D01*
X123929999Y-87581028D02*
X124001428Y-87652457D01*
X124001428Y-87652457D02*
X123929999Y-87723885D01*
X123929999Y-87723885D02*
X123858571Y-87652457D01*
X123858571Y-87652457D02*
X123929999Y-87581028D01*
X123929999Y-87581028D02*
X123929999Y-87723885D01*
X124787142Y-89581028D02*
X124787142Y-88081028D01*
X124787142Y-88081028D02*
X125644285Y-89581028D01*
X125644285Y-89581028D02*
X125644285Y-88081028D01*
X106287143Y-88202457D02*
X106144286Y-88131028D01*
X106144286Y-88131028D02*
X105930000Y-88131028D01*
X105930000Y-88131028D02*
X105715714Y-88202457D01*
X105715714Y-88202457D02*
X105572857Y-88345314D01*
X105572857Y-88345314D02*
X105501428Y-88488171D01*
X105501428Y-88488171D02*
X105430000Y-88773885D01*
X105430000Y-88773885D02*
X105430000Y-88988171D01*
X105430000Y-88988171D02*
X105501428Y-89273885D01*
X105501428Y-89273885D02*
X105572857Y-89416742D01*
X105572857Y-89416742D02*
X105715714Y-89559600D01*
X105715714Y-89559600D02*
X105930000Y-89631028D01*
X105930000Y-89631028D02*
X106072857Y-89631028D01*
X106072857Y-89631028D02*
X106287143Y-89559600D01*
X106287143Y-89559600D02*
X106358571Y-89488171D01*
X106358571Y-89488171D02*
X106358571Y-88988171D01*
X106358571Y-88988171D02*
X106072857Y-88988171D01*
X107001428Y-88845314D02*
X107501428Y-88845314D01*
X107715714Y-89631028D02*
X107001428Y-89631028D01*
X107001428Y-89631028D02*
X107001428Y-88131028D01*
X107001428Y-88131028D02*
X107715714Y-88131028D01*
X109072857Y-89631028D02*
X108358571Y-89631028D01*
X108358571Y-89631028D02*
X108358571Y-88131028D01*
X110072857Y-88845314D02*
X110287143Y-88916742D01*
X110287143Y-88916742D02*
X110358572Y-88988171D01*
X110358572Y-88988171D02*
X110430000Y-89131028D01*
X110430000Y-89131028D02*
X110430000Y-89345314D01*
X110430000Y-89345314D02*
X110358572Y-89488171D01*
X110358572Y-89488171D02*
X110287143Y-89559600D01*
X110287143Y-89559600D02*
X110144286Y-89631028D01*
X110144286Y-89631028D02*
X109572857Y-89631028D01*
X109572857Y-89631028D02*
X109572857Y-88131028D01*
X109572857Y-88131028D02*
X110072857Y-88131028D01*
X110072857Y-88131028D02*
X110215715Y-88202457D01*
X110215715Y-88202457D02*
X110287143Y-88273885D01*
X110287143Y-88273885D02*
X110358572Y-88416742D01*
X110358572Y-88416742D02*
X110358572Y-88559600D01*
X110358572Y-88559600D02*
X110287143Y-88702457D01*
X110287143Y-88702457D02*
X110215715Y-88773885D01*
X110215715Y-88773885D02*
X110072857Y-88845314D01*
X110072857Y-88845314D02*
X109572857Y-88845314D01*
X131914285Y-52457257D02*
X132314285Y-53028685D01*
X132599999Y-52457257D02*
X132599999Y-53657257D01*
X132599999Y-53657257D02*
X132142856Y-53657257D01*
X132142856Y-53657257D02*
X132028571Y-53600114D01*
X132028571Y-53600114D02*
X131971428Y-53542971D01*
X131971428Y-53542971D02*
X131914285Y-53428685D01*
X131914285Y-53428685D02*
X131914285Y-53257257D01*
X131914285Y-53257257D02*
X131971428Y-53142971D01*
X131971428Y-53142971D02*
X132028571Y-53085828D01*
X132028571Y-53085828D02*
X132142856Y-53028685D01*
X132142856Y-53028685D02*
X132599999Y-53028685D01*
X131457142Y-52514400D02*
X131285714Y-52457257D01*
X131285714Y-52457257D02*
X130999999Y-52457257D01*
X130999999Y-52457257D02*
X130885714Y-52514400D01*
X130885714Y-52514400D02*
X130828571Y-52571542D01*
X130828571Y-52571542D02*
X130771428Y-52685828D01*
X130771428Y-52685828D02*
X130771428Y-52800114D01*
X130771428Y-52800114D02*
X130828571Y-52914400D01*
X130828571Y-52914400D02*
X130885714Y-52971542D01*
X130885714Y-52971542D02*
X130999999Y-53028685D01*
X130999999Y-53028685D02*
X131228571Y-53085828D01*
X131228571Y-53085828D02*
X131342856Y-53142971D01*
X131342856Y-53142971D02*
X131399999Y-53200114D01*
X131399999Y-53200114D02*
X131457142Y-53314400D01*
X131457142Y-53314400D02*
X131457142Y-53428685D01*
X131457142Y-53428685D02*
X131399999Y-53542971D01*
X131399999Y-53542971D02*
X131342856Y-53600114D01*
X131342856Y-53600114D02*
X131228571Y-53657257D01*
X131228571Y-53657257D02*
X130942856Y-53657257D01*
X130942856Y-53657257D02*
X130771428Y-53600114D01*
X130314285Y-53542971D02*
X130257142Y-53600114D01*
X130257142Y-53600114D02*
X130142857Y-53657257D01*
X130142857Y-53657257D02*
X129857142Y-53657257D01*
X129857142Y-53657257D02*
X129742857Y-53600114D01*
X129742857Y-53600114D02*
X129685714Y-53542971D01*
X129685714Y-53542971D02*
X129628571Y-53428685D01*
X129628571Y-53428685D02*
X129628571Y-53314400D01*
X129628571Y-53314400D02*
X129685714Y-53142971D01*
X129685714Y-53142971D02*
X130371428Y-52457257D01*
X130371428Y-52457257D02*
X129628571Y-52457257D01*
X129228571Y-53657257D02*
X128485714Y-53657257D01*
X128485714Y-53657257D02*
X128885714Y-53200114D01*
X128885714Y-53200114D02*
X128714285Y-53200114D01*
X128714285Y-53200114D02*
X128600000Y-53142971D01*
X128600000Y-53142971D02*
X128542857Y-53085828D01*
X128542857Y-53085828D02*
X128485714Y-52971542D01*
X128485714Y-52971542D02*
X128485714Y-52685828D01*
X128485714Y-52685828D02*
X128542857Y-52571542D01*
X128542857Y-52571542D02*
X128600000Y-52514400D01*
X128600000Y-52514400D02*
X128714285Y-52457257D01*
X128714285Y-52457257D02*
X129057142Y-52457257D01*
X129057142Y-52457257D02*
X129171428Y-52514400D01*
X129171428Y-52514400D02*
X129228571Y-52571542D01*
X128028571Y-53542971D02*
X127971428Y-53600114D01*
X127971428Y-53600114D02*
X127857143Y-53657257D01*
X127857143Y-53657257D02*
X127571428Y-53657257D01*
X127571428Y-53657257D02*
X127457143Y-53600114D01*
X127457143Y-53600114D02*
X127400000Y-53542971D01*
X127400000Y-53542971D02*
X127342857Y-53428685D01*
X127342857Y-53428685D02*
X127342857Y-53314400D01*
X127342857Y-53314400D02*
X127400000Y-53142971D01*
X127400000Y-53142971D02*
X128085714Y-52457257D01*
X128085714Y-52457257D02*
X127342857Y-52457257D01*
X121664287Y-58492409D02*
X121540477Y-58430504D01*
X121540477Y-58430504D02*
X121354763Y-58430504D01*
X121354763Y-58430504D02*
X121169049Y-58492409D01*
X121169049Y-58492409D02*
X121045239Y-58616219D01*
X121045239Y-58616219D02*
X120983334Y-58740028D01*
X120983334Y-58740028D02*
X120921430Y-58987647D01*
X120921430Y-58987647D02*
X120921430Y-59173361D01*
X120921430Y-59173361D02*
X120983334Y-59420980D01*
X120983334Y-59420980D02*
X121045239Y-59544790D01*
X121045239Y-59544790D02*
X121169049Y-59668600D01*
X121169049Y-59668600D02*
X121354763Y-59730504D01*
X121354763Y-59730504D02*
X121478572Y-59730504D01*
X121478572Y-59730504D02*
X121664287Y-59668600D01*
X121664287Y-59668600D02*
X121726191Y-59606695D01*
X121726191Y-59606695D02*
X121726191Y-59173361D01*
X121726191Y-59173361D02*
X121478572Y-59173361D01*
X122283334Y-59049552D02*
X122716668Y-59049552D01*
X122902382Y-59730504D02*
X122283334Y-59730504D01*
X122283334Y-59730504D02*
X122283334Y-58430504D01*
X122283334Y-58430504D02*
X122902382Y-58430504D01*
X127111905Y-58492409D02*
X126988095Y-58430504D01*
X126988095Y-58430504D02*
X126802381Y-58430504D01*
X126802381Y-58430504D02*
X126616667Y-58492409D01*
X126616667Y-58492409D02*
X126492857Y-58616219D01*
X126492857Y-58616219D02*
X126430952Y-58740028D01*
X126430952Y-58740028D02*
X126369048Y-58987647D01*
X126369048Y-58987647D02*
X126369048Y-59173361D01*
X126369048Y-59173361D02*
X126430952Y-59420980D01*
X126430952Y-59420980D02*
X126492857Y-59544790D01*
X126492857Y-59544790D02*
X126616667Y-59668600D01*
X126616667Y-59668600D02*
X126802381Y-59730504D01*
X126802381Y-59730504D02*
X126926190Y-59730504D01*
X126926190Y-59730504D02*
X127111905Y-59668600D01*
X127111905Y-59668600D02*
X127173809Y-59606695D01*
X127173809Y-59606695D02*
X127173809Y-59173361D01*
X127173809Y-59173361D02*
X126926190Y-59173361D01*
X128473809Y-59730504D02*
X128040476Y-59111457D01*
X127730952Y-59730504D02*
X127730952Y-58430504D01*
X127730952Y-58430504D02*
X128226190Y-58430504D01*
X128226190Y-58430504D02*
X128350000Y-58492409D01*
X128350000Y-58492409D02*
X128411905Y-58554314D01*
X128411905Y-58554314D02*
X128473809Y-58678123D01*
X128473809Y-58678123D02*
X128473809Y-58863838D01*
X128473809Y-58863838D02*
X128411905Y-58987647D01*
X128411905Y-58987647D02*
X128350000Y-59049552D01*
X128350000Y-59049552D02*
X128226190Y-59111457D01*
X128226190Y-59111457D02*
X127730952Y-59111457D01*
X132435714Y-59049552D02*
X132621428Y-59111457D01*
X132621428Y-59111457D02*
X132683333Y-59173361D01*
X132683333Y-59173361D02*
X132745237Y-59297171D01*
X132745237Y-59297171D02*
X132745237Y-59482885D01*
X132745237Y-59482885D02*
X132683333Y-59606695D01*
X132683333Y-59606695D02*
X132621428Y-59668600D01*
X132621428Y-59668600D02*
X132497618Y-59730504D01*
X132497618Y-59730504D02*
X132002380Y-59730504D01*
X132002380Y-59730504D02*
X132002380Y-58430504D01*
X132002380Y-58430504D02*
X132435714Y-58430504D01*
X132435714Y-58430504D02*
X132559523Y-58492409D01*
X132559523Y-58492409D02*
X132621428Y-58554314D01*
X132621428Y-58554314D02*
X132683333Y-58678123D01*
X132683333Y-58678123D02*
X132683333Y-58801933D01*
X132683333Y-58801933D02*
X132621428Y-58925742D01*
X132621428Y-58925742D02*
X132559523Y-58987647D01*
X132559523Y-58987647D02*
X132435714Y-59049552D01*
X132435714Y-59049552D02*
X132002380Y-59049552D01*
X134045237Y-59730504D02*
X133611904Y-59111457D01*
X133302380Y-59730504D02*
X133302380Y-58430504D01*
X133302380Y-58430504D02*
X133797618Y-58430504D01*
X133797618Y-58430504D02*
X133921428Y-58492409D01*
X133921428Y-58492409D02*
X133983333Y-58554314D01*
X133983333Y-58554314D02*
X134045237Y-58678123D01*
X134045237Y-58678123D02*
X134045237Y-58863838D01*
X134045237Y-58863838D02*
X133983333Y-58987647D01*
X133983333Y-58987647D02*
X133921428Y-59049552D01*
X133921428Y-59049552D02*
X133797618Y-59111457D01*
X133797618Y-59111457D02*
X133302380Y-59111457D01*
X137449999Y-58430504D02*
X137759523Y-59730504D01*
X137759523Y-59730504D02*
X138007142Y-58801933D01*
X138007142Y-58801933D02*
X138254761Y-59730504D01*
X138254761Y-59730504D02*
X138564285Y-58430504D01*
X139059522Y-59049552D02*
X139492856Y-59049552D01*
X139678570Y-59730504D02*
X139059522Y-59730504D01*
X139059522Y-59730504D02*
X139059522Y-58430504D01*
X139059522Y-58430504D02*
X139678570Y-58430504D01*
X149772857Y-88081028D02*
X150130000Y-89581028D01*
X150130000Y-89581028D02*
X150415714Y-88509600D01*
X150415714Y-88509600D02*
X150701429Y-89581028D01*
X150701429Y-89581028D02*
X151058572Y-88081028D01*
X151630000Y-88795314D02*
X152130000Y-88795314D01*
X152344286Y-89581028D02*
X151630000Y-89581028D01*
X151630000Y-89581028D02*
X151630000Y-88081028D01*
X151630000Y-88081028D02*
X152344286Y-88081028D01*
X152987143Y-89581028D02*
X152987143Y-88081028D01*
X153630001Y-89509600D02*
X153844287Y-89581028D01*
X153844287Y-89581028D02*
X154201429Y-89581028D01*
X154201429Y-89581028D02*
X154344287Y-89509600D01*
X154344287Y-89509600D02*
X154415715Y-89438171D01*
X154415715Y-89438171D02*
X154487144Y-89295314D01*
X154487144Y-89295314D02*
X154487144Y-89152457D01*
X154487144Y-89152457D02*
X154415715Y-89009600D01*
X154415715Y-89009600D02*
X154344287Y-88938171D01*
X154344287Y-88938171D02*
X154201429Y-88866742D01*
X154201429Y-88866742D02*
X153915715Y-88795314D01*
X153915715Y-88795314D02*
X153772858Y-88723885D01*
X153772858Y-88723885D02*
X153701429Y-88652457D01*
X153701429Y-88652457D02*
X153630001Y-88509600D01*
X153630001Y-88509600D02*
X153630001Y-88366742D01*
X153630001Y-88366742D02*
X153701429Y-88223885D01*
X153701429Y-88223885D02*
X153772858Y-88152457D01*
X153772858Y-88152457D02*
X153915715Y-88081028D01*
X153915715Y-88081028D02*
X154272858Y-88081028D01*
X154272858Y-88081028D02*
X154487144Y-88152457D01*
X155058572Y-89509600D02*
X155272858Y-89581028D01*
X155272858Y-89581028D02*
X155630000Y-89581028D01*
X155630000Y-89581028D02*
X155772858Y-89509600D01*
X155772858Y-89509600D02*
X155844286Y-89438171D01*
X155844286Y-89438171D02*
X155915715Y-89295314D01*
X155915715Y-89295314D02*
X155915715Y-89152457D01*
X155915715Y-89152457D02*
X155844286Y-89009600D01*
X155844286Y-89009600D02*
X155772858Y-88938171D01*
X155772858Y-88938171D02*
X155630000Y-88866742D01*
X155630000Y-88866742D02*
X155344286Y-88795314D01*
X155344286Y-88795314D02*
X155201429Y-88723885D01*
X155201429Y-88723885D02*
X155130000Y-88652457D01*
X155130000Y-88652457D02*
X155058572Y-88509600D01*
X155058572Y-88509600D02*
X155058572Y-88366742D01*
X155058572Y-88366742D02*
X155130000Y-88223885D01*
X155130000Y-88223885D02*
X155201429Y-88152457D01*
X155201429Y-88152457D02*
X155344286Y-88081028D01*
X155344286Y-88081028D02*
X155701429Y-88081028D01*
X155701429Y-88081028D02*
X155915715Y-88152457D01*
X135122856Y-88795314D02*
X135337142Y-88866742D01*
X135337142Y-88866742D02*
X135408571Y-88938171D01*
X135408571Y-88938171D02*
X135479999Y-89081028D01*
X135479999Y-89081028D02*
X135479999Y-89295314D01*
X135479999Y-89295314D02*
X135408571Y-89438171D01*
X135408571Y-89438171D02*
X135337142Y-89509600D01*
X135337142Y-89509600D02*
X135194285Y-89581028D01*
X135194285Y-89581028D02*
X134622856Y-89581028D01*
X134622856Y-89581028D02*
X134622856Y-88081028D01*
X134622856Y-88081028D02*
X135122856Y-88081028D01*
X135122856Y-88081028D02*
X135265714Y-88152457D01*
X135265714Y-88152457D02*
X135337142Y-88223885D01*
X135337142Y-88223885D02*
X135408571Y-88366742D01*
X135408571Y-88366742D02*
X135408571Y-88509600D01*
X135408571Y-88509600D02*
X135337142Y-88652457D01*
X135337142Y-88652457D02*
X135265714Y-88723885D01*
X135265714Y-88723885D02*
X135122856Y-88795314D01*
X135122856Y-88795314D02*
X134622856Y-88795314D01*
X136979999Y-89581028D02*
X136479999Y-88866742D01*
X136122856Y-89581028D02*
X136122856Y-88081028D01*
X136122856Y-88081028D02*
X136694285Y-88081028D01*
X136694285Y-88081028D02*
X136837142Y-88152457D01*
X136837142Y-88152457D02*
X136908571Y-88223885D01*
X136908571Y-88223885D02*
X136979999Y-88366742D01*
X136979999Y-88366742D02*
X136979999Y-88581028D01*
X136979999Y-88581028D02*
X136908571Y-88723885D01*
X136908571Y-88723885D02*
X136837142Y-88795314D01*
X136837142Y-88795314D02*
X136694285Y-88866742D01*
X136694285Y-88866742D02*
X136122856Y-88866742D01*
X137551428Y-89152457D02*
X138265714Y-89152457D01*
X137408571Y-89581028D02*
X137908571Y-88081028D01*
X137908571Y-88081028D02*
X138408571Y-89581028D01*
X138908570Y-88081028D02*
X138908570Y-89295314D01*
X138908570Y-89295314D02*
X138979999Y-89438171D01*
X138979999Y-89438171D02*
X139051428Y-89509600D01*
X139051428Y-89509600D02*
X139194285Y-89581028D01*
X139194285Y-89581028D02*
X139479999Y-89581028D01*
X139479999Y-89581028D02*
X139622856Y-89509600D01*
X139622856Y-89509600D02*
X139694285Y-89438171D01*
X139694285Y-89438171D02*
X139765713Y-89295314D01*
X139765713Y-89295314D02*
X139765713Y-88081028D01*
X140479999Y-89581028D02*
X140479999Y-88081028D01*
X140479999Y-88081028D02*
X141337142Y-89581028D01*
X141337142Y-89581028D02*
X141337142Y-88081028D01*
D12*
%TO.C,J1*%
X123036667Y-49000000D02*
X123036667Y-51240000D01*
X123036667Y-51240000D02*
X127230000Y-51240000D01*
X123276667Y-47260000D02*
X123276667Y-51000000D01*
X123276667Y-51000000D02*
X136723333Y-51000000D01*
X136723333Y-51000000D02*
X136723333Y-47260000D01*
D13*
%TO.C,J3*%
X118995000Y-83780000D02*
X118995000Y-80260000D01*
X123685000Y-78085000D02*
X122175000Y-78085000D01*
X123685000Y-85955000D02*
X122175000Y-85955000D01*
X126865000Y-83780000D02*
X126865000Y-80260000D01*
%TO.C,J5*%
X148945000Y-83780000D02*
X148945000Y-80260000D01*
X153635000Y-78085000D02*
X152125000Y-78085000D01*
X153635000Y-85955000D02*
X152125000Y-85955000D01*
X156815000Y-83780000D02*
X156815000Y-80260000D01*
D12*
%TO.C,J6*%
X119550000Y-60500000D02*
X141050000Y-60500000D01*
X119550000Y-65500000D02*
X119550000Y-60500000D01*
X119550000Y-65500000D02*
X123550000Y-65500000D01*
X123550000Y-65500000D02*
X123550000Y-69000000D01*
D11*
X123550000Y-69000000D02*
X137050000Y-69000000D01*
D12*
X137050000Y-65500000D02*
X137050000Y-69000000D01*
X137050000Y-65500000D02*
X141050000Y-65500000D01*
X141050000Y-65500000D02*
X141050000Y-60500000D01*
D13*
%TO.C,J4*%
X134045000Y-83780000D02*
X134045000Y-80260000D01*
X138735000Y-78085000D02*
X137225000Y-78085000D01*
X138735000Y-85955000D02*
X137225000Y-85955000D01*
X141915000Y-83780000D02*
X141915000Y-80260000D01*
D12*
%TO.C,TP1*%
X141872663Y-47300000D02*
X145272663Y-47300000D01*
X141872663Y-50700000D02*
X141872663Y-47300000D01*
X145272663Y-47300000D02*
X145272663Y-50700000D01*
X145272663Y-50700000D02*
X141872663Y-50700000D01*
D13*
%TO.C,J2*%
X103995000Y-83785000D02*
X103995000Y-80265000D01*
X108685000Y-78090000D02*
X107175000Y-78090000D01*
X108685000Y-85960000D02*
X107175000Y-85960000D01*
X111865000Y-83785000D02*
X111865000Y-80265000D01*
D12*
%TO.C,TP2*%
X114800000Y-47300000D02*
X118200000Y-47300000D01*
X114800000Y-50700000D02*
X114800000Y-47300000D01*
X118200000Y-47300000D02*
X118200000Y-50700000D01*
X118200000Y-50700000D02*
X114800000Y-50700000D01*
%TD*%
%LPC*%
D14*
%TO.C,H4*%
X147000000Y-54000000D03*
D15*
X147000000Y-54000000D03*
%TD*%
D14*
%TO.C,H3*%
X113000000Y-54000000D03*
D15*
X113000000Y-54000000D03*
%TD*%
D16*
%TO.C,J1*%
X124460000Y-49000000D03*
X127230000Y-49000000D03*
X130000000Y-49000000D03*
X132770000Y-49000000D03*
X135540000Y-49000000D03*
%TD*%
D17*
%TO.C,J3*%
X125430000Y-78515000D03*
X120430000Y-78515000D03*
X120430000Y-85525000D03*
X125430000Y-85525000D03*
%TD*%
D14*
%TO.C,H1*%
X145430000Y-82025000D03*
D15*
X145430000Y-82025000D03*
%TD*%
D17*
%TO.C,J5*%
X155380000Y-78515000D03*
X150380000Y-78515000D03*
X150380000Y-85525000D03*
X155380000Y-85525000D03*
%TD*%
D18*
%TO.C,J6*%
X123000000Y-63000000D03*
X127850000Y-63000000D03*
X132650000Y-63000000D03*
X137500000Y-63000000D03*
%TD*%
D17*
%TO.C,J4*%
X140480000Y-78515000D03*
X135480000Y-78515000D03*
X135480000Y-85525000D03*
X140480000Y-85525000D03*
%TD*%
D19*
%TO.C,TP1*%
X143572663Y-49000000D03*
%TD*%
D17*
%TO.C,J2*%
X110430000Y-78520000D03*
X105430000Y-78520000D03*
X105430000Y-85530000D03*
X110430000Y-85530000D03*
%TD*%
D19*
%TO.C,TP2*%
X116500000Y-49000000D03*
%TD*%
D14*
%TO.C,H2*%
X115430000Y-82025000D03*
D15*
X115430000Y-82025000D03*
%TD*%
%LPD*%
M02*
