%TF.GenerationSoftware,KiCad,Pcbnew,8.0.3*%
%TF.CreationDate,2024-06-22T21:50:30+02:00*%
%TF.ProjectId,W48_W49_Nummernschalter_Adapter,5734385f-5734-4395-9f4e-756d6d65726e,rev?*%
%TF.SameCoordinates,Original*%
%TF.FileFunction,Profile,NP*%
%FSLAX46Y46*%
G04 Gerber Fmt 4.6, Leading zero omitted, Abs format (unit mm)*
G04 Created by KiCad (PCBNEW 8.0.3) date 2024-06-22 21:50:30*
%MOMM*%
%LPD*%
G01*
G04 APERTURE LIST*
%TA.AperFunction,Profile*%
%ADD10C,0.050000*%
%TD*%
G04 APERTURE END LIST*
D10*
X105391587Y-91925700D02*
G75*
G02*
X97986797Y-80842951I370313J8262500D01*
G01*
X146030000Y-46959156D02*
X146030000Y-41990000D01*
X114000000Y-46940000D02*
X114000000Y-41959157D01*
X154406434Y-82051433D02*
G75*
G02*
X151353566Y-82051433I-1526434J0D01*
G01*
X151353566Y-82051433D02*
G75*
G02*
X154406434Y-82051433I1526434J0D01*
G01*
X139506434Y-82025000D02*
G75*
G02*
X136453566Y-82025000I-1526434J0D01*
G01*
X136453566Y-82025000D02*
G75*
G02*
X139506434Y-82025000I1526434J0D01*
G01*
X109581208Y-44054224D02*
G75*
G02*
X113441522Y-41959159I3918792J-2616676D01*
G01*
X150777628Y-44153950D02*
X163239475Y-80852434D01*
X124456434Y-82025000D02*
G75*
G02*
X121403566Y-82025000I-1526434J0D01*
G01*
X121403566Y-82025000D02*
G75*
G02*
X124456434Y-82025000I1526434J0D01*
G01*
X146030000Y-41990000D02*
X146666667Y-42000000D01*
X146030000Y-46959156D02*
X114000000Y-46940000D01*
X155423747Y-91959169D02*
X105391587Y-91925701D01*
X146666667Y-42000028D02*
G75*
G02*
X150777627Y-44153951I33J-4999972D01*
G01*
X109581207Y-44054224D02*
X97986805Y-80842954D01*
X114000000Y-41959157D02*
X113441522Y-41959157D01*
X163239475Y-80852434D02*
G75*
G02*
X155423747Y-91959171I-7815725J-2803436D01*
G01*
X109456434Y-82025000D02*
G75*
G02*
X106403566Y-82025000I-1526434J0D01*
G01*
X106403566Y-82025000D02*
G75*
G02*
X109456434Y-82025000I1526434J0D01*
G01*
M02*
